<svg xmlns="http://www.w3.org/2000/svg" xmlns:xlink="http://www.w3.org/1999/xlink" preserveAspectRatio="xMidYMid meet" version="1.0" viewBox="0.0 0.0 503.3 500.0" zoomAndPan="magnify" style="fill: rgb(0, 0, 0);" original_string_length="2646"><linearGradient xmlns:xlink="http://www.w3.org/1999/xlink" gradientUnits="userSpaceOnUse" id="__id115_sa163juqpe" x1="-32.995" x2="343.625" xlink:actuate="onLoad" xlink:show="other" xlink:type="simple" y1="340.06" y2="54.703"><stop offset="0" style="stop-color: rgb(255, 255, 255);"/><stop offset="1" style="stop-color: rgb(255, 255, 255);"/></linearGradient><path d="M210.3819885,193.2996674l-76.3615265-76.3615341L250.9585876,0l133.9541016,133.9540863 l-59.3455811,59.3455811C293.759613,161.4921875,242.1894836,161.4921875,210.3819885,193.2996674z" style="fill: url(&quot;#__id115_sa163juqpe&quot;);"/><linearGradient xmlns:xlink="http://www.w3.org/1999/xlink" gradientUnits="userSpaceOnUse" id="__id116_sa163juqpe" x1="82.706" x2="459.326" xlink:actuate="onLoad" xlink:show="other" xlink:type="simple" y1="492.765" y2="207.408"><stop offset="0" style="stop-color: rgb(255, 255, 255);"/><stop offset="1" style="stop-color: rgb(255, 255, 255);"/></linearGradient><path d="M383.0618591,365.9795532l-40.514679-40.514679 c31.8074951-31.8074951,31.8074951-83.3776093,0-115.1851044l62.6396179-62.6396179l98.1072388,98.1072235L383.0618591,365.9795532z" style="fill: url(&quot;#__id116_sa163juqpe&quot;);"/><linearGradient xmlns:xlink="http://www.w3.org/1999/xlink" gradientUnits="userSpaceOnUse" id="__id117_sa163juqpe" x1="86.725" x2="463.345" xlink:actuate="onLoad" xlink:show="other" xlink:type="simple" y1="498.069" y2="212.712"><stop offset="0" style="stop-color: rgb(255, 255, 255);"/><stop offset="1" style="stop-color: rgb(255, 255, 255);"/></linearGradient><path d="M289.6180115,306.7003174l76.3615417,76.3615417L249.0414124,500L115.0873184,366.0458984 l59.3455887-59.3455811C206.240387,338.5078125,257.8105164,338.5078125,289.6180115,306.7003174z" style="fill: url(&quot;#__id117_sa163juqpe&quot;);"/><linearGradient xmlns:xlink="http://www.w3.org/1999/xlink" gradientUnits="userSpaceOnUse" id="__id118_sa163juqpe" x1="-29.168" x2="347.452" xlink:actuate="onLoad" xlink:show="other" xlink:type="simple" y1="345.111" y2="59.754"><stop offset="0" style="stop-color: rgb(255, 255, 255);"/><stop offset="1" style="stop-color: rgb(255, 255, 255);"/></linearGradient><path d="M116.9381409,134.020462l40.5146637,40.5146637 c-31.8074875,31.8074799-31.8074875,83.3776245,0,115.1850891l-59.3455811,59.3456116L0,250.9585876L116.9381409,134.020462z" style="fill: url(&quot;#__id118_sa163juqpe&quot;);"/><linearGradient xmlns:xlink="http://www.w3.org/1999/xlink" gradientUnits="userSpaceOnUse" id="__id119_sa163juqpe" x1="128.584" x2="372.8" xlink:actuate="onLoad" xlink:show="other" xlink:type="simple" y1="376.986" y2="124.986"><stop offset="0" style="stop-color: rgb(255, 255, 255);"/><stop offset="1" style="stop-color: rgb(255, 255, 255);"/></linearGradient><circle cx="251.647" cy="250" r="36.634" style="fill: url(&quot;#__id119_sa163juqpe&quot;);"/></svg>